<svg width="12.000000" height="23.000000" viewBox="0 0 12 23" fill="none" xmlns="http://www.w3.org/2000/svg" xmlns:xlink="http://www.w3.org/1999/xlink">
	<desc>
			Created with Pixso.
	</desc>
	<defs/>
	<g opacity="0.700126">
		<path d="M0.25 10.86L10.53 0.26C10.86 -0.09 11.41 -0.09 11.74 0.26C12.08 0.61 12.08 1.17 11.74 1.52L2.08 11.5L11.74 21.47C12.08 21.82 12.08 22.38 11.74 22.73C11.58 22.91 11.35 23 11.13 23C10.91 23 10.69 22.91 10.53 22.73L0.25 12.13C0.09 11.96 0 11.73 0 11.5C0 11.26 0.09 11.03 0.25 10.86Z" fill="#363838" fill-opacity="1.000000" fill-rule="evenodd"/>
		<path d="M10.53 0.26C10.86 -0.09 11.41 -0.09 11.74 0.26C12.08 0.61 12.08 1.17 11.74 1.52L2.08 11.5L11.74 21.47C12.08 21.82 12.08 22.38 11.74 22.73C11.58 22.91 11.35 23 11.13 23C10.91 23 10.69 22.91 10.53 22.73L0.25 12.13C0.09 11.96 0 11.73 0 11.5C0 11.26 0.09 11.03 0.25 10.86L10.53 0.26Z" stroke="#979797" stroke-opacity="0" stroke-width="0.000000"/>
	</g>
</svg>
