<svg width="12.000000" height="23.000000" viewBox="0 0 12 23" fill="none" xmlns="http://www.w3.org/2000/svg" xmlns:xlink="http://www.w3.org/1999/xlink">
	<desc>
			Created with Pixso.
	</desc>
	<defs/>
	<g opacity="0.700126">
		<path d="M11.74 10.86L1.46 0.26C1.13 -0.09 0.58 -0.09 0.25 0.26C-0.09 0.61 -0.09 1.17 0.25 1.52L9.91 11.5L0.25 21.47C-0.09 21.82 -0.09 22.38 0.25 22.73C0.41 22.91 0.64 23 0.86 23C1.08 23 1.3 22.91 1.46 22.73L11.74 12.13C11.9 11.96 12 11.73 12 11.5C12 11.26 11.9 11.03 11.74 10.86Z" fill="#363838" fill-opacity="1.000000" fill-rule="evenodd"/>
		<path d="M1.46 0.26C1.13 -0.09 0.58 -0.09 0.25 0.26C-0.09 0.61 -0.09 1.17 0.25 1.52L9.91 11.5L0.25 21.47C-0.09 21.82 -0.09 22.38 0.25 22.73C0.41 22.91 0.64 23 0.86 23C1.08 23 1.3 22.91 1.46 22.73L11.74 12.13C11.9 11.96 12 11.73 12 11.5C12 11.26 11.9 11.03 11.74 10.86L1.46 0.26Z" stroke="#979797" stroke-opacity="0" stroke-width="0.000000"/>
	</g>
</svg>
